<?xml version="1.0" encoding="UTF-8" standalone="no"?>
<svg
   xmlns:dc="http://purl.org/dc/elements/1.1/"
   xmlns:cc="http://creativecommons.org/ns#"
   xmlns:rdf="http://www.w3.org/1999/02/22-rdf-syntax-ns#"
   xmlns:svg="http://www.w3.org/2000/svg"
   xmlns="http://www.w3.org/2000/svg"
   viewBox="0 0 685.33331 312.72"
   height="312.72"
   width="685.33331"
   xml:space="preserve"
   id="svg2"
   version="1.1"><metadata
     id="metadata8"><rdf:RDF><cc:Work
         rdf:about=""><dc:format>image/svg+xml</dc:format><dc:type
           rdf:resource="http://purl.org/dc/dcmitype/StillImage" /></cc:Work></rdf:RDF></metadata><defs
     id="defs6" /><g
     transform="matrix(1.3333333,0,0,-1.3333333,0,312.72)"
     id="g10"><g
       transform="scale(0.1)"
       id="g12"><path
         id="path14"
         style="fill:#cc1e26;fill-opacity:1;fill-rule:nonzero;stroke:none"
         d="m 1201.69,880.98 v 6.141 l 0.02,82.52 H 261.816 C 203.035,969.75 155.105,1017.66 155,1076.44 v 12.32 c 0.105,58.78 48.035,106.69 106.816,106.78 h 911.554 v 50.99 H 106.797 C 48.0156,1246.64 0.105469,1294.54 0,1353.32 v 12.31 c 0.105469,58.78 48.0156,106.68 106.797,106.79 l 1094.913,0.76 v 79.41 6.12 l 4.67,-3.96 390.45,-331.92 2.52,-2.17 -2.52,-2.16 -390.47,-333.539 -4.67,-3.981 z m 92.17,-188.191 H 561.797 c -58.781,0.102 -106.68,48.012 -106.785,106.762 v 12.32 c 0.105,58.797 48.004,106.699 106.785,106.789 h 586.073 2.84 v -2.832 -145.5 l 527.31,450.472 -527.31,448.18 v -142.73 -2.83 h -2.84 -886.054 c -58.781,0.1 -106.711,48.01 -106.816,106.76 v 12.34 c 0.105,58.77 48.035,106.68 106.816,106.78 l 1255.034,0.18 -262.02,259.15 c -97.38,97.39 -74.27,228.4 -24.94,310.97 l 16.04,23.03 1.95,2.77 2.4,-2.38 766.35,-766.01 c 40.78,-43.3 72.29,-93.04 93.69,-147.87 28.3,-65.85 42.66,-135.9 42.66,-208.09 0,-291.28 -236.99,-528.241 -528.28,-528.241 l -328.03,0.101 -1.06,-0.058 c -0.58,-0.024 -1.17,-0.063 -1.75,-0.063 v 0" /><path
         id="path16"
         style="fill:#cc1e26;fill-opacity:1;fill-rule:nonzero;stroke:none"
         d="m 3619.34,886.969 c -33.99,-37.93 -78.52,-56.891 -133.66,-56.891 -51.61,0 -94.36,19.613 -128.35,58.871 -8.06,9.492 -15.16,19.68 -21.28,30.551 -18.88,33.559 -28.33,73.648 -28.33,120.31 0,57.78 16.98,106.28 50.94,145.53 21.84,24.64 47.07,41.44 75.66,50.42 16.44,5.19 34.02,7.81 52.7,7.81 54.22,0 98.33,-19.21 132.32,-57.56 33.94,-39.28 50.92,-89.1 50.92,-149.5 0,-60.451 -16.98,-110.299 -50.92,-149.541 z m -323.76,700.141 c -5.15,5.65 -10.38,11.23 -15.81,16.69 -100.28,101.14 -233.98,157.18 -376.45,157.78 h -2.28 c -141.97,0 -275.6,-55.19 -376.25,-155.36 -100.67,-100.22 -156.42,-233.67 -157.03,-375.71 -0.6,-142.44 54.3,-276.6 154.6,-377.78 100.31,-101.171 234.01,-157.199 376.47,-157.769 l 2.28,-0.039 c 120.74,0 235.41,39.949 328.91,113.5 3.93,-5.012 7.98,-9.902 12.22,-14.742 58.2,-64.379 131.85,-96.59 220.95,-96.59 70.56,0 136.51,28.648 197.8,86.012 v -67.481 h 149.54 v 644.359 h -149.54 v -74.75 c -59.52,61.75 -126.78,92.65 -201.78,92.65 -15.48,0 -30.54,-1.06 -45.1,-3.13 -52.09,-7.31 -98.26,-27.7 -138.5,-61.18 -11.61,-9.7 -22.76,-20.46 -33.37,-32.32 -57.8,-64.38 -86.68,-144.88 -86.68,-241.44 0,-31.89 3.04,-62.04 9.12,-90.482 C 3095.79,884.199 3002.96,844.18 2901.11,844.18 h -1.67 c -211.76,0.879 -383.34,173.93 -382.46,385.72 0.89,210.87 173.2,382.46 384.06,382.46 h 1.66 c 115.21,-0.5 218.48,-51.91 288.62,-132.81 l 63.06,64.88 z m 1411.79,-313.78 h -74.89 v 321.52 h 68.29 c 145.95,0 218.97,-52.69 218.97,-158.09 0,-108.95 -70.79,-163.43 -212.37,-163.43 z m 273.23,378.41 c -33.52,33.1 -72.34,55.58 -116.44,67.51 -43.64,11.9 -125.61,17.86 -211.15,17.86 H 4478.32 V 715.621 h 154.16 v 414.809 h 88.78 c 106.29,0 190.76,27.35 253.41,82.04 62.6,54.68 93.92,128.76 93.92,222.3 0,87.32 -29.32,159.66 -87.99,216.97 z m -917.41,85.37 H 3909.03 V 715.621 h 454.51 l 88.79,144.891 h -389.14 v 876.598" /><path
         id="path18"
         style="fill:#cc1e26;fill-opacity:1;fill-rule:nonzero;stroke:none"
         d="M 3.00781,375.219 H 237.422 v -35.75 H 139.594 V 94.2109 H 99.2227 V 339.469 H 3.00781 v 35.75" /><path
         id="path20"
         style="fill:#cc1e26;fill-opacity:1;fill-rule:nonzero;stroke:none"
         d="m 269.555,374.82 h 36.558 V 254.711 c 15.27,18.609 34.215,27.918 56.848,27.918 12.316,0 23.367,-3.09 33.141,-9.238 9.777,-6.161 17.043,-14.672 21.793,-25.52 4.757,-10.84 7.132,-26.98 7.132,-48.41 V 94.2109 H 388.473 V 208.512 c 0,13.519 -3.317,24.398 -9.95,32.629 -6.625,8.238 -15.363,12.359 -26.21,12.359 -8.036,0 -15.598,-2.07 -22.7,-6.23 -7.097,-4.149 -14.929,-11.051 -23.5,-20.692 V 94.2109 H 269.555 V 374.82" /><path
         id="path22"
         style="fill:#cc1e26;fill-opacity:1;fill-rule:nonzero;stroke:none"
         d="m 504.371,205.289 h 93 c -0.937,14.59 -5.293,25.84 -13.055,33.742 -7.769,7.899 -18.214,11.86 -31.332,11.86 -13.132,0 -23.875,-3.961 -32.242,-11.86 -8.371,-7.902 -13.828,-19.152 -16.371,-33.742 z m 129.16,-21.891 H 503.57 c 0.934,-17.679 6.86,-31.738 17.774,-42.187 10.914,-10.441 25.008,-15.66 42.285,-15.66 24.101,0 46.328,7.5 66.687,22.5 v -35.77 c -11.25,-7.5 -22.394,-12.8513 -33.445,-16.0622 -11.047,-3.2071 -24.004,-4.8204 -38.867,-4.8204 -20.359,0 -36.828,4.211 -49.414,12.6526 -12.59,8.437 -22.668,19.789 -30.231,34.051 -7.566,14.257 -11.347,30.769 -11.347,49.519 0,28.109 7.965,50.981 23.902,68.59 15.934,17.609 36.625,26.418 62.07,26.418 24.5,0 44.051,-8.578 58.653,-25.719 14.593,-17.14 21.894,-40.101 21.894,-68.89 v -4.622" /><path
         id="path24"
         style="fill:#cc1e26;fill-opacity:1;fill-rule:nonzero;stroke:none"
         d="M 1034.26,159.301 V 115.102 C 1004.79,99.0313 970.781,91 932.219,91 c -31.336,0 -57.922,6.2891 -79.746,18.879 -21.828,12.582 -39.106,29.922 -51.825,52.019 -12.722,22.102 -19.082,46 -19.082,71.711 0,40.84 14.563,75.2 43.688,103.051 29.125,27.852 65.051,41.781 107.769,41.781 29.457,0 62.196,-7.711 98.227,-23.101 v -43.192 c -32.816,18.75 -64.887,28.122 -96.223,28.122 -32.136,0 -58.82,-10.141 -80.043,-30.43 -21.222,-20.289 -31.839,-45.699 -31.839,-76.231 0,-30.8 10.445,-56.109 31.335,-75.918 20.891,-19.832 47.606,-29.73 80.149,-29.73 34.008,0 67.221,10.437 99.631,31.34" /><path
         id="path26"
         style="fill:#cc1e26;fill-opacity:1;fill-rule:nonzero;stroke:none"
         d="m 1158.8,130.77 v 54.832 l -24.51,-9.442 c -12.45,-4.949 -21.26,-9.941 -26.41,-14.961 -5.16,-5.019 -7.74,-11.277 -7.74,-18.777 0,-7.641 2.45,-13.863 7.34,-18.684 4.88,-4.816 11.21,-7.238 18.98,-7.238 11.65,0 22.43,4.762 32.34,14.27 z m 35.95,74.519 V 126.75 c 0,-6.289 2.14,-9.441 6.43,-9.441 4.42,0 11.32,3.293 20.69,9.851 V 104.852 C 1213.56,99.5 1206.9,95.8516 1201.88,93.9102 1196.86,91.9688 1191.61,91 1186.11,91 c -15.66,0 -24.9,6.1602 -27.72,18.469 -15.53,-12.0471 -32.07,-18.0706 -49.61,-18.0706 -12.85,0 -23.57,4.2422 -32.14,12.7496 -8.57,8.512 -12.85,19.192 -12.85,32.043 0,11.649 4.18,22.059 12.55,31.239 8.37,9.172 20.26,16.441 35.66,21.789 l 46.8,16.07 v 9.852 c 0,22.218 -11.12,33.339 -33.35,33.339 -19.95,0 -39.37,-10.32 -58.25,-30.929 v 39.969 c 14.2,16.742 34.62,25.109 61.27,25.109 19.95,0 35.95,-5.231 48,-15.68 4.02,-3.34 7.64,-7.801 10.85,-13.347 3.21,-5.563 5.25,-11.122 6.13,-16.68 0.87,-5.551 1.3,-16.102 1.3,-31.633" /><path
         id="path28"
         style="fill:#cc1e26;fill-opacity:1;fill-rule:nonzero;stroke:none"
         d="m 1245.17,107.469 v 39.371 c 10.31,-7.231 20.86,-13.09 31.64,-17.57 10.77,-4.5 19.85,-6.739 27.21,-6.739 7.64,0 14.2,1.867 19.69,5.617 5.49,3.75 8.23,8.25 8.23,13.461 0,5.36 -1.77,9.821 -5.32,13.36 -3.55,3.551 -11.21,8.672 -23,15.371 -23.57,13.129 -39,24.34 -46.3,33.64 -7.3,9.309 -10.95,19.461 -10.95,30.43 0,14.199 5.53,25.781 16.57,34.762 11.05,8.957 25.28,13.457 42.69,13.457 18.08,0 36.63,-5.09 55.64,-15.27 v -36.16 c -21.69,13.133 -39.44,19.692 -53.23,19.692 -7.1,0 -12.83,-1.52 -17.18,-4.52 -4.35,-3.019 -6.52,-7.019 -6.52,-11.98 0,-4.282 1.97,-8.371 5.91,-12.262 3.94,-3.891 10.87,-8.578 20.79,-14.059 l 13.05,-7.429 c 30.81,-17.411 46.22,-36.692 46.22,-57.84 0,-15.121 -5.93,-27.551 -17.78,-37.242 C 1340.68,95.8516 1325.45,91 1306.84,91 c -10.99,0 -20.76,1.1719 -29.33,3.5117 -8.57,2.3399 -19.36,6.6603 -32.34,12.9573" /><path
         id="path30"
         style="fill:#cc1e26;fill-opacity:1;fill-rule:nonzero;stroke:none"
         d="m 1411.69,374.82 h 36.56 V 254.711 c 15.27,18.609 34.21,27.918 56.84,27.918 12.32,0 23.37,-3.09 33.15,-9.238 9.77,-6.161 17.04,-14.672 21.79,-25.52 4.76,-10.84 7.13,-26.98 7.13,-48.41 V 94.2109 h -36.55 V 208.512 c 0,13.519 -3.32,24.398 -9.95,32.629 -6.63,8.238 -15.37,12.359 -26.21,12.359 -8.04,0 -15.6,-2.07 -22.7,-6.23 -7.1,-4.149 -14.93,-11.051 -23.5,-20.692 V 94.2109 h -36.56 V 374.82" /><path
         id="path32"
         style="fill:#cc1e26;fill-opacity:1;fill-rule:nonzero;stroke:none"
         d="m 1737.49,374.82 h 40.18 V 130.77 h 126.34 V 94.2109 H 1737.49 V 374.82" /><path
         id="path34"
         style="fill:#cc1e26;fill-opacity:1;fill-rule:nonzero;stroke:none"
         d="m 1962.47,205.289 h 93 c -0.94,14.59 -5.29,25.84 -13.06,33.742 -7.77,7.899 -18.21,11.86 -31.33,11.86 -13.13,0 -23.87,-3.961 -32.24,-11.86 -8.37,-7.902 -13.83,-19.152 -16.37,-33.742 z m 129.16,-21.891 h -129.97 c 0.94,-17.679 6.87,-31.738 17.78,-42.187 10.91,-10.441 25.01,-15.66 42.28,-15.66 24.11,0 46.33,7.5 66.69,22.5 v -35.77 c -11.25,-7.5 -22.39,-12.8513 -33.44,-16.0622 -11.05,-3.2071 -24.01,-4.8204 -38.87,-4.8204 -20.36,0 -36.83,4.211 -49.42,12.6526 -12.58,8.437 -22.66,19.789 -30.23,34.051 -7.56,14.257 -11.34,30.769 -11.34,49.519 0,28.109 7.96,50.981 23.9,68.59 15.93,17.609 36.62,26.418 62.07,26.418 24.5,0 44.05,-8.578 58.65,-25.719 14.6,-17.14 21.9,-40.101 21.9,-68.89 v -4.622" /><path
         id="path36"
         style="fill:#cc1e26;fill-opacity:1;fill-rule:nonzero;stroke:none"
         d="m 2211.34,130.77 v 54.832 l -24.5,-9.442 c -12.46,-4.949 -21.26,-9.941 -26.42,-14.961 -5.16,-5.019 -7.73,-11.277 -7.73,-18.777 0,-7.641 2.44,-13.863 7.33,-18.684 4.89,-4.816 11.22,-7.238 18.98,-7.238 11.65,0 22.43,4.762 32.34,14.27 z m 35.95,74.519 V 126.75 c 0,-6.289 2.15,-9.441 6.44,-9.441 4.41,0 11.31,3.293 20.68,9.851 V 104.852 C 2266.11,99.5 2259.45,95.8516 2254.43,93.9102 2249.4,91.9688 2244.15,91 2238.66,91 c -15.67,0 -24.91,6.1602 -27.72,18.469 -15.53,-12.0471 -32.07,-18.0706 -49.62,-18.0706 -12.85,0 -23.57,4.2422 -32.14,12.7496 -8.56,8.512 -12.85,19.192 -12.85,32.043 0,11.649 4.18,22.059 12.56,31.239 8.36,9.172 20.25,16.441 35.65,21.789 l 46.8,16.07 v 9.852 c 0,22.218 -11.12,33.339 -33.34,33.339 -19.96,0 -39.37,-10.32 -58.25,-30.929 v 39.969 c 14.19,16.742 34.61,25.109 61.26,25.109 19.95,0 35.96,-5.231 48.01,-15.68 4.02,-3.34 7.63,-7.801 10.84,-13.347 3.22,-5.563 5.26,-11.122 6.13,-16.68 0.87,-5.551 1.3,-16.102 1.3,-31.633" /><path
         id="path38"
         style="fill:#cc1e26;fill-opacity:1;fill-rule:nonzero;stroke:none"
         d="m 2345.92,279.012 v -42.383 l 2.01,3.211 c 17.68,28.519 35.35,42.789 53.03,42.789 13.79,0 28.19,-6.969 43.19,-20.891 l -19.29,-32.136 c -12.72,12.046 -24.5,18.078 -35.35,18.078 -11.79,0 -22,-5.629 -30.63,-16.879 -8.64,-11.25 -12.96,-24.571 -12.96,-39.973 V 94.2109 h -36.76 V 279.012 h 36.76" /><path
         id="path40"
         style="fill:#cc1e26;fill-opacity:1;fill-rule:nonzero;stroke:none"
         d="m 2506.21,279.012 v -23.5 c 16.35,18.066 34.88,27.117 55.65,27.117 11.52,0 22.22,-2.981 32.12,-8.938 9.93,-5.972 17.45,-14.132 22.6,-24.511 5.16,-10.379 7.74,-26.821 7.74,-49.321 V 94.2109 h -36.55 V 199.461 c 0,18.891 -2.89,32.379 -8.65,40.48 -5.74,8.098 -15.39,12.149 -28.92,12.149 -17.27,0 -31.94,-8.629 -43.99,-25.91 V 94.2109 h -37.36 V 279.012 h 37.36" /><path
         id="path42"
         style="fill:#cc1e26;fill-opacity:1;fill-rule:nonzero;stroke:none"
         d="m 2676.15,279.012 h 36.56 V 94.2109 h -36.56 z m 18.08,77.738 c 6.02,0 11.18,-2.078 15.47,-6.23 4.27,-4.149 6.42,-9.239 6.42,-15.27 0,-5.898 -2.15,-10.98 -6.42,-15.262 -4.29,-4.289 -9.45,-6.437 -15.47,-6.437 -5.63,0 -10.59,2.179 -14.86,6.539 -4.29,4.34 -6.43,9.398 -6.43,15.16 0,5.629 2.14,10.609 6.43,14.961 4.27,4.359 9.23,6.539 14.86,6.539" /><path
         id="path44"
         style="fill:#cc1e26;fill-opacity:1;fill-rule:nonzero;stroke:none"
         d="m 2802.09,279.012 v -23.5 c 16.34,18.066 34.88,27.117 55.63,27.117 11.53,0 22.24,-2.981 32.14,-8.938 9.92,-5.972 17.44,-14.132 22.6,-24.511 5.16,-10.379 7.74,-26.821 7.74,-49.321 V 94.2109 h -36.56 V 199.461 c 0,18.891 -2.88,32.379 -8.64,40.48 -5.75,8.098 -15.4,12.149 -28.93,12.149 -17.26,0 -31.93,-8.629 -43.98,-25.91 V 94.2109 h -37.36 V 279.012 h 37.36" /><path
         id="path46"
         style="fill:#cc1e26;fill-opacity:1;fill-rule:nonzero;stroke:none"
         d="m 3030.48,247.27 c -9.91,0 -18.35,-3.34 -25.3,-10.04 -6.98,-6.699 -10.45,-14.73 -10.45,-24.109 0,-9.512 3.41,-17.371 10.24,-23.601 6.83,-6.219 15.47,-9.329 25.91,-9.329 10.31,0 18.91,3.168 25.81,9.539 6.9,6.348 10.35,14.282 10.35,23.79 0,9.64 -3.49,17.679 -10.45,24.109 -6.96,6.43 -15.66,9.641 -26.11,9.641 z m -8.63,-161.688 c -12.33,0 -22.41,-2.6211 -30.24,-7.8437 -7.83,-5.2188 -11.75,-11.918 -11.75,-20.0781 0,-19.0196 17.14,-28.5313 51.42,-28.5313 16.2,0 28.76,2.3828 37.67,7.1328 8.9,4.7578 13.35,11.4766 13.35,20.1797 0,8.5781 -5.62,15.5703 -16.87,21 -11.25,5.418 -25.78,8.1406 -43.58,8.1406 z m -60.06,129.559 c 0,19.668 7.19,35.25 21.59,46.699 14.39,11.441 34.04,17.172 58.95,17.172 h 76.13 v -28.524 h -37.36 c 7.23,-7.367 12.25,-14.058 15.06,-20.09 2.81,-6.027 4.22,-12.929 4.22,-20.687 0,-9.641 -2.74,-19.109 -8.23,-28.422 -5.5,-9.309 -12.56,-16.449 -21.19,-21.398 -8.65,-4.95 -22.81,-8.903 -42.48,-11.84 -13.8,-2.02 -20.7,-6.77 -20.7,-14.27 0,-4.293 2.58,-7.801 7.74,-10.551 5.15,-2.742 14.49,-5.582 28.02,-8.531 22.62,-4.949 37.19,-8.84 43.69,-11.648 6.49,-2.821 12.35,-6.8322 17.57,-12.051 8.84,-8.8398 13.26,-19.9609 13.26,-33.3398 0,-17.5508 -7.81,-31.5508 -23.4,-41.9883 C 3079.05,5.21875 3058.2,0 3032.09,0 c -26.39,0 -47.44,5.26172 -63.17,15.7695 -15.75,10.5196 -23.61,24.6094 -23.61,42.2891 0,25.043 15.47,41.1719 46.4,48.4024 -12.32,7.898 -18.48,15.738 -18.48,23.508 0,5.89 2.65,11.242 7.94,16.062 5.29,4.828 12.41,8.367 21.39,10.649 -27.19,12.05 -40.77,31.531 -40.77,58.461" /><path
         id="path48"
         style="fill:#cc1e26;fill-opacity:1;fill-rule:nonzero;stroke:none"
         d="m 3345.84,339.469 h -41.57 v -87.778 h 43.98 c 16.34,0 28.93,3.848 37.77,11.547 8.83,7.703 13.26,18.711 13.26,33.051 0,28.789 -17.82,43.18 -53.44,43.18 z M 3263.89,94.2109 V 375.219 h 88.98 c 26.79,0 48.15,-7.219 64.08,-21.688 15.93,-14.461 23.91,-33.883 23.91,-58.25 0,-16.34 -4.09,-30.801 -12.26,-43.39 -8.17,-12.582 -19.35,-21.719 -33.54,-27.422 -14.2,-5.688 -34.55,-8.528 -61.07,-8.528 h -29.72 V 94.2109 h -40.38" /><path
         id="path50"
         style="fill:#cc1e26;fill-opacity:1;fill-rule:nonzero;stroke:none"
         d="m 3550.93,130.77 v 54.832 l -24.5,-9.442 c -12.46,-4.949 -21.26,-9.941 -26.42,-14.961 -5.16,-5.019 -7.73,-11.277 -7.73,-18.777 0,-7.641 2.44,-13.863 7.33,-18.684 4.88,-4.816 11.21,-7.238 18.98,-7.238 11.65,0 22.43,4.762 32.34,14.27 z m 35.95,74.519 V 126.75 c 0,-6.289 2.14,-9.441 6.43,-9.441 4.42,0 11.32,3.293 20.69,9.851 V 104.852 C 3605.7,99.5 3599.04,95.8516 3594.01,93.9102 3588.99,91.9688 3583.74,91 3578.25,91 c -15.67,0 -24.91,6.1602 -27.72,18.469 -15.54,-12.0471 -32.07,-18.0706 -49.61,-18.0706 -12.86,0 -23.58,4.2422 -32.14,12.7496 -8.57,8.512 -12.86,19.192 -12.86,32.043 0,11.649 4.19,22.059 12.56,31.239 8.37,9.172 20.25,16.441 35.65,21.789 l 46.8,16.07 v 9.852 c 0,22.218 -11.12,33.339 -33.34,33.339 -19.95,0 -39.38,-10.32 -58.25,-30.929 v 39.969 c 14.19,16.742 34.62,25.109 61.26,25.109 19.96,0 35.95,-5.231 48,-15.68 4.03,-3.34 7.64,-7.801 10.85,-13.347 3.22,-5.563 5.26,-11.122 6.13,-16.68 0.88,-5.551 1.3,-16.102 1.3,-31.633" /><path
         id="path52"
         style="fill:#cc1e26;fill-opacity:1;fill-rule:nonzero;stroke:none"
         d="m 3685.51,279.012 v -42.383 l 2.01,3.211 c 17.68,28.519 35.35,42.789 53.03,42.789 13.79,0 28.19,-6.969 43.18,-20.891 l -19.28,-32.136 c -12.72,12.046 -24.51,18.078 -35.35,18.078 -11.79,0 -22,-5.629 -30.63,-16.879 -8.64,-11.25 -12.96,-24.571 -12.96,-39.973 V 94.2109 h -36.76 V 279.012 h 36.76" /><path
         id="path54"
         style="fill:#cc1e26;fill-opacity:1;fill-rule:nonzero;stroke:none"
         d="m 3791.56,249.691 68.7,67.489 v -38.168 h 58.45 v -32.953 h -58.45 V 155.48 c 0,-21.16 8.77,-31.742 26.31,-31.742 13.13,0 26.98,4.41 41.58,13.25 V 102.852 C 3914.09,94.9414 3898.76,91 3882.16,91 c -16.75,0 -30.68,4.8906 -41.79,14.66 -3.49,2.942 -6.36,6.262 -8.63,9.942 -2.29,3.687 -4.19,8.5 -5.72,14.468 -1.55,5.95 -2.32,17.301 -2.32,34.039 v 81.95 h -32.14 v 3.632" /><path
         id="path56"
         style="fill:#cc1e26;fill-opacity:1;fill-rule:nonzero;stroke:none"
         d="m 3991.03,279.012 v -23.5 c 16.33,18.066 34.88,27.117 55.63,27.117 11.52,0 22.24,-2.981 32.14,-8.938 9.91,-5.972 17.44,-14.132 22.6,-24.511 5.15,-10.379 7.73,-26.821 7.73,-49.321 V 94.2109 h -36.55 V 199.461 c 0,18.891 -2.88,32.379 -8.64,40.48 -5.76,8.098 -15.4,12.149 -28.93,12.149 -17.27,0 -31.93,-8.629 -43.98,-25.91 V 94.2109 h -37.37 V 279.012 h 37.37" /><path
         id="path58"
         style="fill:#cc1e26;fill-opacity:1;fill-rule:nonzero;stroke:none"
         d="m 4188.49,205.289 h 92.99 c -0.93,14.59 -5.29,25.84 -13.05,33.742 -7.77,7.899 -18.22,11.86 -31.34,11.86 -13.13,0 -23.87,-3.961 -32.24,-11.86 -8.37,-7.902 -13.82,-19.152 -16.36,-33.742 z m 129.15,-21.891 h -129.96 c 0.93,-17.679 6.86,-31.738 17.78,-42.187 10.91,-10.441 25,-15.66 42.27,-15.66 24.12,0 46.34,7.5 66.69,22.5 v -35.77 c -11.25,-7.5 -22.39,-12.8513 -33.43,-16.0622 -11.06,-3.2071 -24.01,-4.8204 -38.88,-4.8204 -20.35,0 -36.83,4.211 -49.4,12.6526 -12.6,8.437 -22.68,19.789 -30.24,34.051 -7.57,14.257 -11.35,30.769 -11.35,49.519 0,28.109 7.96,50.981 23.9,68.59 15.94,17.609 36.63,26.418 62.07,26.418 24.51,0 44.06,-8.578 58.65,-25.719 14.6,-17.14 21.9,-40.101 21.9,-68.89 v -4.622" /><path
         id="path60"
         style="fill:#cc1e26;fill-opacity:1;fill-rule:nonzero;stroke:none"
         d="m 4396.38,279.012 v -42.383 l 2.01,3.211 c 17.67,28.519 35.35,42.789 53.03,42.789 13.79,0 28.19,-6.969 43.18,-20.891 l -19.28,-32.136 c -12.72,12.046 -24.51,18.078 -35.35,18.078 -11.79,0 -22,-5.629 -30.63,-16.879 -8.64,-11.25 -12.96,-24.571 -12.96,-39.973 V 94.2109 h -36.76 V 279.012 h 36.76" /><path
         id="path62"
         style="fill:#cc1e26;fill-opacity:1;fill-rule:nonzero;stroke:none"
         d="m 4511.07,107.469 v 39.371 c 10.32,-7.231 20.85,-13.09 31.64,-17.57 10.78,-4.5 19.85,-6.739 27.21,-6.739 7.64,0 14.2,1.867 19.69,5.617 5.49,3.75 8.24,8.25 8.24,13.461 0,5.36 -1.78,9.821 -5.33,13.36 -3.55,3.551 -11.21,8.672 -23,15.371 -23.56,13.129 -39,24.34 -46.3,33.64 -7.29,9.309 -10.94,19.461 -10.94,30.43 0,14.199 5.52,25.781 16.57,34.762 11.04,8.957 25.27,13.457 42.68,13.457 18.08,0 36.62,-5.09 55.65,-15.27 v -36.16 c -21.7,13.133 -39.45,19.692 -53.23,19.692 -7.1,0 -12.83,-1.52 -17.18,-4.52 -4.36,-3.019 -6.53,-7.019 -6.53,-11.98 0,-4.282 1.98,-8.371 5.91,-12.262 3.95,-3.891 10.87,-8.578 20.78,-14.059 l 13.07,-7.429 c 30.8,-17.411 46.21,-36.692 46.21,-57.84 0,-15.121 -5.93,-27.551 -17.77,-37.242 C 4606.58,95.8516 4591.35,91 4572.73,91 c -10.97,0 -20.75,1.1719 -29.32,3.5117 -8.57,2.3399 -19.35,6.6603 -32.34,12.9573" /><path
         id="path64"
         style="fill:#cc1e26;fill-opacity:1;fill-rule:nonzero;stroke:none"
         d="m 4677.59,374.82 h 36.56 V 254.711 c 15.26,18.609 34.21,27.918 56.85,27.918 12.31,0 23.36,-3.09 33.13,-9.238 9.78,-6.161 17.04,-14.672 21.8,-25.52 4.75,-10.84 7.13,-26.98 7.13,-48.41 V 94.2109 H 4796.5 V 208.512 c 0,13.519 -3.32,24.398 -9.94,32.629 -6.63,8.238 -15.37,12.359 -26.22,12.359 -8.03,0 -15.59,-2.07 -22.69,-6.23 -7.1,-4.149 -14.94,-11.051 -23.5,-20.692 V 94.2109 h -36.56 V 374.82" /><path
         id="path66"
         style="fill:#cc1e26;fill-opacity:1;fill-rule:nonzero;stroke:none"
         d="m 4884.89,279.012 h 36.56 V 94.2109 h -36.56 z m 18.08,77.738 c 6.02,0 11.18,-2.078 15.47,-6.23 4.27,-4.149 6.42,-9.239 6.42,-15.27 0,-5.898 -2.15,-10.98 -6.42,-15.262 -4.29,-4.289 -9.45,-6.437 -15.47,-6.437 -5.63,0 -10.59,2.179 -14.86,6.539 -4.29,4.34 -6.43,9.398 -6.43,15.16 0,5.629 2.14,10.609 6.43,14.961 4.27,4.359 9.23,6.539 14.86,6.539" /><path
         id="path68"
         style="fill:#cc1e26;fill-opacity:1;fill-rule:nonzero;stroke:none"
         d="m 5035.14,244.859 h -25.92 V 131.172 c 11.25,-5.762 23.04,-8.641 35.35,-8.641 17.15,0 31.17,5.957 42.09,17.879 10.91,11.91 16.37,27.25 16.37,46 0,12.051 -2.58,22.699 -7.74,31.942 -5.15,9.238 -12.18,15.968 -21.09,20.179 -8.91,4.219 -21.92,6.328 -39.06,6.328 z M 4971.87,0 v 279.012 h 64.07 c 32.8,0 58.35,-8.172 76.63,-24.512 18.28,-16.34 27.42,-39.172 27.42,-68.488 0,-27.723 -8.61,-50.492 -25.81,-68.301 C 5096.96,99.8984 5075.04,91 5048.39,91 c -11.79,0 -24.85,2.6094 -39.17,7.8281 V 0 h -37.35" /></g></g></svg>